# xmcd
#
# Track frame offsets:
#	150
#	14672
#	24261
#	36111
#	48221
#	65791
#	74729
#	83061
#	96211
#	109309
#	120821
#	132367
#	147857
#	161839
#	175613
#	186891
#	200457
#	211995
#	224157
#	239335
#
# Disc length: 3318 seconds
#
# Revision: 0
# Processed by: cddbd v1.4PL0 Copyright (c) Steve Scherf et al.
# Submitted via: dBpowerAMP V4.0
#
DISCID=290cf414
DTITLE=Tom Jones - in concert
DYEAR=1900
DGENRE=
TTITLE0=You've lost that loving feeling
TTITLE1=Heartache tonight
TTITLE2=What in the world's come over you
TTITLE3=You don't have to say you love me
TTITLE4=She believes in me
TTITLE5=Can't buy me love
TTITLE6=Starting over
TTITLE7=You are my world
TTITLE8=If ever I could leave you
TTITLE9=Middle aged crazy
TTITLE10=Love me tonight
TTITLE11=Georgia on my mind
TTITLE12=Bridge over troubled water
TTITLE13=As time goes by
TTITLE14=Long and winding road
TTITLE15=Let it be
TTITLE16=Send in the clowns
TTITLE17=I who have nothing
TTITLE18=Help me make it through the night
TTITLE19=Darling
EXTD=
EXTT0=
EXTT1=
EXTT2=
EXTT3=
EXTT4=
EXTT5=
EXTT6=
EXTT7=
EXTT8=
EXTT9=
EXTT10=
EXTT11=
EXTT12=
EXTT13=
EXTT14=
EXTT15=
EXTT16=
EXTT17=
EXTT18=
EXTT19=
PLAYORDER=
